<?xml version="1.0" encoding="UTF-8"?>
<svg width="1204px" height="740px" viewBox="0 0 1204 740" version="1.1" xmlns="http://www.w3.org/2000/svg" xmlns:xlink="http://www.w3.org/1999/xlink">
    <defs>
        <linearGradient x1="112.601286%" y1="50.0003917%" x2="10.2672164%" y2="50.0004052%" id="linearGradient">
            <stop stop-color="#8E1458" offset="0%"></stop>
            <stop stop-color="#693F91" offset="100%"></stop>
        </linearGradient>
        <path d="M614.295181,291.113489 C683.962122,291.113489 749.970275,314.934282 803.022715,358.707364 L799.893751,361.826159 C690.889829,470.814037 517.637172,477.261545 401.025768,381.268645 L404.134739,378.159846 C460.266161,322.031539 534.901458,291.113489 614.295181,291.113489 Z M1195.45283,337.115709 C1184.07659,325.740106 1165.6327,325.740106 1154.25646,337.115709 L964.699204,526.652456 C864.712297,626.643811 731.536376,681.722523 589.713317,681.722523 C457.677018,681.722523 333.108248,633.960983 235.730478,546.544768 L277.066796,505.200747 C366.067339,584.020284 477.850341,623.485031 589.713317,623.485031 C710.583311,623.485031 831.483296,577.452822 923.512836,485.448381 L1113.0701,295.911634 C1124.44633,284.526035 1124.44633,266.083162 1113.0701,254.697563 C1101.68386,243.321959 1083.23997,243.321959 1071.86373,254.697563 L882.296477,444.244306 C727.857594,598.684616 480.749382,605.172109 318.373125,463.89671 L359.709443,422.592674 C425.807566,478.80095 507.730451,506.980059 589.713317,506.980059 C680.743188,506.980059 771.793052,472.33345 841.090116,403.04023 L1030.63738,213.493488 C1042.03361,202.117884 1041.87366,183.515074 1030.48743,172.129474 C919.484169,61.1293743 771.673092,0 614.295181,0 C456.907273,0 309.086199,61.1423693 198.092935,172.129474 L8.54267255,361.686213 C-2.84755752,373.061817 -2.84755752,391.504689 8.54267255,402.870296 C19.8999135,414.265892 38.3727994,414.265892 49.7460351,402.870296 L239.2893,213.333549 C339.286203,113.342195 472.462124,58.2734781 614.295181,58.2734781 C746.341476,58.2734781 870.900249,106.015027 968.288016,193.451234 L926.941701,234.785259 C840.690248,158.354798 730.786624,116.500974 614.295181,116.500974 C488.06696,116.500974 369.516198,165.522028 280.515655,254.547621 L90.9414002,444.094364 C79.5601672,455.449975 79.5601672,473.902843 90.9334029,485.298439 C96.6195209,490.976244 104.094047,493.825143 111.541582,493.825143 C118.999114,493.825143 126.456645,490.976244 132.144763,485.298439 L321.722016,295.751696 C399.726199,217.741846 503.621811,174.77845 614.295181,174.77845 C715.221776,174.77845 810.460254,210.6146 885.635372,276.089295 L844.329044,317.403328 C780.150286,262.724461 699.536967,232.836012 614.295181,232.836012 C519.33661,232.836012 430.05616,269.811721 362.918381,336.955771 L173.361121,526.492518 C167.892931,531.960404 164.913917,539.447511 164.913917,547.174524 C164.913917,554.911534 168.062875,562.398641 173.521068,567.866527 C284.524328,678.863628 432.335406,740 589.713317,740 C747.101224,740 894.912302,678.863628 1005.90557,567.866527 L1195.45283,378.309788 C1206.84906,366.944181 1206.84906,348.501309 1195.45283,337.115709 L1195.45283,337.115709 Z" id="path"></path>
    </defs>
    <g stroke="none" stroke-width="1" fill="none" fill-rule="evenodd">
        <mask fill="white">
            <use xlink:href="#path"></use>
        </mask>
        <use fill="url(#linearGradient)" xlink:href="#path"></use>
    </g>
</svg>